<svg enable-background="new 0 0 841.9 595.3" version="1.1" viewBox="104 216.5 634 162.8" xml:space="preserve" xmlns="http://www.w3.org/2000/svg">
	<style type="text/css">
	.st0{fill:#FFFFFF;}
</style>
	<path class="st0" d="m205.9 268.6c0 11.3-9.1 20.4-20.4 20.4s-20.4-9.1-20.4-20.4 9.1-20.4 20.4-20.4c11.2 0 20.4 9.1 20.4 20.4z" />
	<path class="st0" d="m185.4 379.3c-44.9 0-81.4-36.5-81.4-81.4s36.5-81.4 81.4-81.4 81.4 36.5 81.4 81.4c0.1 44.9-36.5 81.4-81.4 81.4zm0-149.3c-37.4 0-67.9 30.5-67.9 67.9s30.5 67.9 67.9 67.9 67.9-30.5 67.9-67.9c0-37.5-30.4-67.9-67.9-67.9z" />
	<path class="st0" d="m321.6 329.4c-4.9-2.7-8.7-6.5-11.5-11.4s-4.2-10.5-4.2-16.8 1.4-12 4.2-16.9 6.7-8.7 11.7-11.5c5-2.7 10.7-4.1 17.1-4.1 5.1 0 10.1 1 14.8 3.1 4.8 2.1 8.7 5 11.8 8.9l-11.3 9.8c-3.8-4.5-8.7-6.7-14.6-6.7-2.5 0-4.7 0.4-6.8 1.3s-3.9 2-5.3 3.5-2.6 3.3-3.3 5.4-1.2 4.4-1.2 7c0 5.1 1.6 9.3 4.7 12.5s7.1 4.8 12.1 4.8c3.1 0 5.9-0.6 8.4-1.8s4.5-2.7 6.2-4.5l11.5 10.1c-2.9 3.3-6.7 6.1-11.5 8.1-4.8 2.1-10.2 3.1-16.2 3.1-6.2 0.2-11.7-1.2-16.6-3.9z" />
	<path class="st0" d="m435.9 269.8-33.7 88h-17.2l11.1-29.2-25-58.7h17.5l15.3 38.8h0.2l14.3-38.8h17.5z" />
	<path class="st0" d="m455.3 329.4c-4.9-2.7-8.7-6.5-11.5-11.4s-4.2-10.5-4.2-16.8 1.4-12 4.2-16.9 6.7-8.7 11.7-11.5c5-2.7 10.7-4.1 17.1-4.1 5.1 0 10.1 1 14.8 3.1 4.8 2.1 8.7 5 11.8 8.9l-11.3 9.8c-3.8-4.5-8.7-6.7-14.6-6.7-2.5 0-4.7 0.4-6.8 1.3s-3.9 2-5.3 3.5-2.6 3.3-3.3 5.4c-0.8 2.1-1.2 4.4-1.2 7 0 5.1 1.6 9.3 4.7 12.5s7.1 4.8 12.1 4.8c3.1 0 5.9-0.6 8.4-1.8s4.5-2.7 6.2-4.5l11.5 10.1c-2.9 3.3-6.7 6.1-11.5 8.1-4.8 2.1-10.2 3.1-16.2 3.1-6.2 0.2-11.7-1.2-16.6-3.9z" />
	<path class="st0" d="M512,238h16.8v94.4H512V238z" />
	<path class="st0" d="m565.3 331.9c-3.5-1-6.5-2.5-9.2-4.4s-5-4.2-7-6.9-3.5-5.6-4.5-8.9-1.5-6.8-1.5-10.5c0-4.6 0.8-9 2.4-13s3.9-7.4 6.7-10.3c2.9-2.9 6.4-5.1 10.6-6.7s8.7-2.4 13.6-2.4c4.8 0 9.3 0.8 13.4 2.4s7.7 3.8 10.6 6.6 5.2 6.2 6.9 10.3c1.6 4 2.5 8.4 2.5 13.2 0 6.3-1.4 11.9-4.3 16.8-2.8 4.9-6.8 8.7-11.8 11.4-5.1 2.7-10.8 4-17.2 4-4.1 0-7.8-0.5-11.2-1.6zm22.6-18.3c3.1-3.3 4.7-7.4 4.7-12.4 0-5.1-1.5-9.3-4.6-12.5s-7-4.9-11.6-4.9c-4.8 0-8.8 1.6-11.8 4.9s-4.5 7.4-4.5 12.4c0 4.9 1.5 9 4.6 12.3s7 5 11.7 5c4.5 0.1 8.4-1.6 11.5-4.8z" />
	<path class="st0" d="m668.7 270.3c3 1 5.7 2.5 8.2 4.4 2.4 1.9 4.5 4.2 6.3 6.9s3.1 5.7 4.1 9c1 3.4 1.4 6.9 1.4 10.7 0 4.8-0.8 9.2-2.3 13.2s-3.6 7.4-6.2 10.2c-2.7 2.8-5.8 4.9-9.5 6.5-3.7 1.5-7.7 2.3-12 2.3-7.8 0-14-2.7-18.5-8.1h-0.2v32.4h-16.8v-88h16.8v7.2h0.3c4.7-5.5 11-8.3 19-8.3 3.2 0 6.3 0.6 9.4 1.6zm-1.5 43.4c3-3.2 4.5-7.3 4.5-12.3 0-5.3-1.5-9.5-4.6-12.7-3-3.2-6.9-4.8-11.5-4.8-2.4 0-4.6 0.4-6.6 1.3s-3.7 2.1-5.2 3.7c-1.4 1.5-2.5 3.4-3.3 5.6s-1.2 4.5-1.2 7c0 3.3 0.7 6.3 2.2 9 1.4 2.6 3.4 4.6 5.9 6s5.2 2.1 8.3 2.1c4.6-0.1 8.5-1.7 11.5-4.9z" />
	<path class="st0" d="m708.3 328.2c-3.2-3.5-4.8-8.7-4.8-15.6v-28.9h-7.4v-13.9h7.4v-20.5l16.8-1.8v22.3h17v13.9h-17v26.6c0 2.8 0.4 4.8 1.3 6.1s2.3 1.9 4.2 1.9c2.4 0 5.1-0.7 7.9-2.2l4.3 13.4c-2.4 1.3-4.8 2.3-7.2 2.9-2.4 0.7-5.6 1-9.4 1-5.5 0.1-9.9-1.7-13.1-5.2z" />
</svg>
