<?xml version="1.0" standalone="no"?>
<!DOCTYPE svg PUBLIC "-//W3C//DTD SVG 20010904//EN"
 "http://www.w3.org/TR/2001/REC-SVG-20010904/DTD/svg10.dtd">
<svg version="1.0" xmlns="http://www.w3.org/2000/svg"
 width="1009.000000pt" height="1009.000000pt" viewBox="0 0 1009.000000 1009.000000"
 preserveAspectRatio="xMidYMid meet">
<metadata>
Created by potrace 1.14, written by Peter Selinger 2001-2017
</metadata>
<g transform="translate(0.000000,1009.000000) scale(0.100000,-0.100000)"
fill="#000000" stroke="none">
<path d="M4758 10006 c-1 -2 -48 -7 -103 -10 -107 -7 -146 -11 -270 -27 -130
-17 -146 -19 -235 -35 -47 -9 -96 -18 -110 -20 -14 -2 -36 -7 -50 -10 -14 -3
-36 -8 -50 -11 -14 -2 -74 -17 -135 -33 -60 -16 -121 -32 -135 -36 -95 -24
-405 -128 -475 -160 -16 -7 -52 -22 -80 -32 -180 -70 -491 -229 -705 -360
-516 -317 -1005 -762 -1371 -1247 -353 -468 -623 -998 -796 -1560 -41 -135
-97 -358 -116 -465 -3 -14 -12 -63 -20 -110 -17 -92 -25 -143 -33 -205 -2 -22
-7 -58 -10 -80 -28 -196 -40 -737 -21 -955 21 -228 28 -296 43 -375 2 -10 6
-37 9 -60 4 -22 19 -107 36 -190 107 -541 325 -1101 616 -1580 111 -184 320
-480 408 -579 6 -6 35 -40 65 -76 30 -36 71 -83 90 -105 59 -67 302 -309 365
-365 33 -29 74 -65 90 -79 198 -174 468 -368 733 -526 564 -336 1315 -588
1937 -650 39 -4 79 -9 90 -11 141 -26 768 -25 1000 1 22 3 65 7 95 10 30 4
111 15 180 26 105 17 171 30 380 74 76 16 427 119 465 136 11 5 63 24 115 43
200 72 522 221 705 327 50 29 99 57 110 64 206 115 548 368 785 579 58 52 324
319 370 371 54 61 154 178 163 190 4 5 36 46 70 90 76 96 103 134 204 285 76
114 91 137 150 235 195 321 386 764 497 1150 80 282 132 542 161 805 4 30 8
66 11 80 26 166 26 787 -1 1010 -3 19 -7 55 -10 80 -8 66 -12 101 -19 140 -3
19 -8 51 -11 70 -2 19 -6 44 -8 55 -3 11 -7 36 -11 55 -40 220 -96 439 -168
655 -118 355 -268 680 -479 1034 -86 146 -291 431 -428 594 -119 144 -126 152
-301 327 -586 589 -1285 1010 -2090 1258 -68 21 -280 78 -321 86 -13 2 -56 11
-94 20 -88 19 -113 23 -195 36 -36 6 -76 13 -90 15 -14 3 -45 7 -70 10 -25 3
-58 8 -75 10 -16 2 -64 7 -105 10 -41 4 -91 9 -110 12 -39 5 -636 13 -642 9z
m622 -839 c14 -3 56 -8 93 -12 37 -3 76 -8 85 -10 9 -1 42 -6 72 -10 257 -33
630 -132 905 -241 148 -58 145 -57 346 -156 540 -269 1027 -665 1400 -1140 49
-62 93 -118 99 -125 5 -6 49 -71 98 -145 213 -319 367 -632 488 -993 47 -143
105 -347 118 -422 3 -14 10 -49 15 -77 12 -61 19 -99 27 -146 3 -19 7 -42 9
-50 2 -8 7 -49 11 -90 3 -41 8 -78 10 -81 10 -18 19 -228 19 -449 0 -251 -6
-364 -25 -505 -6 -44 -13 -98 -16 -120 -5 -34 -48 -262 -59 -305 -141 -590
-371 -1085 -725 -1559 -431 -579 -1033 -1054 -1685 -1331 -55 -23 -115 -49
-134 -57 -93 -41 -506 -167 -612 -187 -248 -46 -350 -63 -434 -71 -27 -2 -86
-8 -130 -12 -162 -16 -680 -8 -795 12 -14 2 -47 6 -74 9 -281 32 -678 133
-966 245 -222 87 -550 251 -700 351 -14 9 -59 39 -100 66 -41 27 -79 52 -85
56 -5 5 -62 47 -125 94 -63 48 -144 112 -180 143 -36 31 -78 67 -94 81 -84 72
-316 312 -389 403 -21 25 -44 52 -51 59 -59 60 -289 392 -371 538 -27 47 -55
96 -64 110 -8 14 -16 27 -16 30 -1 3 -28 59 -61 125 -33 66 -81 171 -107 232
-43 103 -141 377 -152 427 -3 12 -18 72 -35 133 -16 62 -31 123 -34 135 -2 13
-13 73 -25 133 -52 274 -66 443 -66 770 0 258 8 391 30 540 3 17 7 48 10 70 3
22 10 63 16 90 5 28 11 64 13 80 13 93 75 332 133 510 39 122 143 385 178 455
13 25 41 81 63 126 232 467 587 919 1005 1279 539 466 1244 808 1912 929 17 3
41 8 55 11 13 2 40 7 60 10 20 3 46 7 59 10 13 2 46 7 75 10 28 4 65 8 81 10
17 2 73 7 125 11 52 3 97 8 99 10 6 5 572 -4 601 -9z"/>
<path d="M4855 8054 c-277 -38 -513 -154 -711 -349 -72 -70 -164 -185 -201
-252 -65 -116 -132 -285 -147 -373 -3 -19 -9 -46 -12 -60 -14 -53 -12 -345 2
-424 47 -260 174 -496 368 -684 175 -170 378 -275 629 -329 113 -24 360 -24
477 1 392 82 713 328 883 678 43 89 81 188 91 239 2 13 10 44 16 69 19 75 22
362 4 455 -32 166 -83 304 -162 434 -25 42 -48 78 -51 81 -3 3 -22 25 -41 50
-62 82 -134 151 -225 219 -108 81 -158 110 -267 157 -202 86 -435 118 -653 88z"/>
</g>
</svg>
